<?xml version="1.0" encoding="utf-8"?>
<svg width="80px" height="80px" viewBox="0 0 80 80" version="1.1" xmlns:xlink="http://www.w3.org/1999/xlink" xmlns="http://www.w3.org/2000/svg">
  <desc>Created with Lunacy</desc>
  <g id="gamepad">
    <path d="M0 0L79.9998 0L79.9998 79.9998L0 79.9998L0 0Z" id="Background" fill="none" stroke="none" />
    <g id="Group" transform="translate(0 18.18188)">
      <g id="Group">
        <path d="M72.7272 0L7.27277 0C3.25448 0 0 3.25448 0 7.2726L0 36.3635C0 40.3817 3.25448 43.6363 7.27277 43.6363L72.7272 43.6363C76.7453 43.6363 80 40.3818 80 36.3635L80 7.2726C79.9998 3.25448 76.7453 0 72.7272 0ZM25.4545 25.4545L36.3635 25.4545L36.3635 18.1817L25.4545 18.1817L25.4545 7.27261L18.1817 7.27261L18.1817 18.1817L7.27261 18.1817L7.27261 25.4545L18.1817 25.4545L18.1817 36.3635L25.4545 36.3635L25.4545 25.4545ZM61.8181 16.3636C61.8181 19.3818 64.2544 21.8181 67.2727 21.8181C70.2907 21.8181 72.7272 19.3818 72.7272 16.3636C72.7272 13.3454 70.2909 10.9091 67.2727 10.9091C64.2544 10.9091 61.8181 13.3454 61.8181 16.3636ZM52.7271 32.7272C49.7089 32.7272 47.2726 30.2909 47.2726 27.2727C47.2726 24.2545 49.7089 21.8182 52.7271 21.8182C55.7454 21.8182 58.1817 24.2545 58.1817 27.2727C58.1817 30.2909 55.7454 32.7272 52.7271 32.7272Z" id="Shape" fill="#000000" fill-rule="evenodd" stroke="none" />
      </g>
    </g>
  </g>
</svg>