<?xml version="1.0" encoding="iso-8859-1"?>
<!-- Generator: Adobe Illustrator 19.0.0, SVG Export Plug-In . SVG Version: 6.00 Build 0)  -->
<svg version="1.1" id="Capa_1" xmlns="http://www.w3.org/2000/svg" xmlns:xlink="http://www.w3.org/1999/xlink" x="0px" y="0px"
	 viewBox="0 0 511.999 511.999" style="enable-background:new 0 0 511.999 511.999;" xml:space="preserve">

		<path d="M343.626,257v-47.684l39.976-85.994c2.498-5.375,1.598-11.716-2.298-16.182c-3.895-4.466-10.059-6.221-15.721-4.476
			l-26.471,8.152c-7.787-23.327-25.038-42.076-46.995-52.021c2.798-5.5,4.386-11.714,4.386-18.295c0-22.332-18.169-40.5-40.503-40.5
			c-22.334,0-40.503,18.168-40.503,40.5c0,6.583,1.589,12.798,4.388,18.298c-22.63,10.238-39.38,29.286-46.988,52.02l-26.479-8.154
			c-5.668-1.745-11.826,0.009-15.722,4.476c-3.896,4.466-4.796,10.808-2.298,16.182l39.976,85.994V257c0,8.284,6.716,15,15.001,15
			h10.894L182.39,411h-12.639c-6.451,0-12.179,4.124-14.226,10.24l-23.76,71c-1.531,4.575-0.768,9.608,2.051,13.523
			c2.82,3.916,7.349,6.236,12.175,6.236h220.016c4.826,0,9.355-2.321,12.175-6.236c2.819-3.916,3.582-8.948,2.051-13.523l-23.76-71
			c-2.047-6.117-7.775-10.24-14.226-10.24h-12.639L317.73,272h10.894C336.91,272,343.626,265.284,343.626,257z M255.999,30
			c5.791,0,10.501,4.71,10.501,10.5S261.79,51,255.999,51c-5.79,0-10.501-4.71-10.501-10.5S250.208,30,255.999,30z M255.999,81
			c24.946,0,46.553,15.946,54.445,38.644l-10.019,3.085l-37.635-19.104c-4.268-2.167-9.313-2.167-13.581,0l-37.636,19.104
			l-10.011-3.083C209.458,97.011,230.977,81,255.999,81z M331.449,441l13.72,41h-178.34l13.72-41
			C215.292,441,298.947,441,331.449,441z M198.374,242v-21h115.249v21C300.712,242,212.713,242,198.374,242z M299.497,411H212.5
			l11.879-139h63.239L299.497,411z M192.944,191l-23.121-49.735c10.562,3.252,32.468,9.996,38.718,11.921
			c3.719,1.145,7.736,0.8,11.205-0.961l36.253-18.403l36.253,18.403c3.418,1.735,7.552,2.085,11.205,0.961
			c5.229-1.61,28.493-8.773,38.719-11.921L319.054,191H192.944z"/>
	
</svg>
