<svg id="Capa_1" enable-background="new 0 0 512 512" height="512" viewBox="0 0 512 512" width="512" xmlns="http://www.w3.org/2000/svg"><g><path d="m427.316 482v-100.1h-104.21v-50.006h-134.211v25.003h-104.211v125.103h-24.817v30h392.266v-30zm-30-70.1v70.1h-74.21v-70.1zm-178.421-50.005h74.211v120.105h-74.211zm-104.211 25.002h74.21v95.103h-74.21z"/><path d="m167.142 114.985h28.236c10.926 14.68 27.048 25.272 45.622 29.03v27.879h-23.741c-16.538 0-29.993 13.455-29.993 29.993v30.007h-19.708v30h176.882v-30h-19.708v-30.007c0-16.538-13.455-29.993-29.993-29.993h-23.739v-27.879c18.574-3.758 34.696-14.349 45.622-29.03h28.236c23.43 0 42.492-19.062 42.492-42.493 0-23.43-19.062-42.492-42.492-42.492h-13.327v-30h-151.062v30h-13.327c-23.43 0-42.492 19.062-42.492 42.492-.001 23.431 19.061 42.493 42.492 42.493zm127.591 116.909h-77.469l-.005-30 77.474-.007zm50.125-171.894c6.888 0 12.492 5.604 12.492 12.492 0 6.889-5.604 12.493-12.492 12.493h-14.828c.981-4.85 1.501-9.865 1.501-15v-9.985zm-134.389-30h91.063v39.985c0 25.106-20.425 45.531-45.531 45.531s-45.531-20.425-45.531-45.531v-39.985zm-43.327 30h13.327v9.985c0 5.135.52 10.15 1.501 15h-14.828c-6.888 0-12.492-5.604-12.492-12.493-.001-6.888 5.603-12.492 12.492-12.492z"/></g></svg>