<svg version="1.1" id="Capa_1" xmlns="http://www.w3.org/2000/svg" xmlns:xlink="http://www.w3.org/1999/xlink" x="0px" y="0px"
	 viewBox="0 0 511.999 511.999" style="enable-background:new 0 0 511.999 511.999;" xml:space="preserve"><g id="XMLID_311_"><path id="XMLID_336_" d="m345.277 379.419v-76.972h-145.649v-88.813h-175.648v295.776h467.396v-129.991zm-175.649 99.992h-115.648v-235.776h115.648zm145.649 0h-115.649v-146.963h115.648v146.963zm146.099 0h-115.648v-69.991h115.648z"/><path id="XMLID_343_" d="m53.851 178.36 57.953-30.468 57.953 30.468-11.068-64.532 46.885-45.701-64.793-9.415-28.977-58.712-28.976 58.712-64.793 9.415 46.885 45.701zm48.899-92.228 9.054-18.346 9.055 18.346 20.246 2.942-14.65 14.28 3.458 20.165-18.109-9.521-18.109 9.521 3.458-20.165-14.65-14.28z"/><path id="XMLID_345_" d="m92.135 327.363h8.669v95.737h30v-125.737h-38.669z"/></g></svg>
