<?xml version="1.0" encoding="UTF-8" standalone="no"?>
<!-- Created with Inkscape (http://www.inkscape.org/) -->

<svg
   width="529.16742mm"
   height="318.91037mm"
   viewBox="0 0 529.16742 318.91037"
   version="1.1"
   id="svg5"
   xml:space="preserve"
   xmlns:inkscape="http://www.inkscape.org/namespaces/inkscape"
   xmlns:sodipodi="http://sodipodi.sourceforge.net/DTD/sodipodi-0.dtd"
   xmlns="http://www.w3.org/2000/svg"
   xmlns:svg="http://www.w3.org/2000/svg"><sodipodi:namedview
     id="namedview7"
     pagecolor="#ffffff"
     bordercolor="#000000"
     borderopacity="0.25"
     inkscape:showpageshadow="2"
     inkscape:pageopacity="0.0"
     inkscape:pagecheckerboard="0"
     inkscape:deskcolor="#d1d1d1"
     inkscape:document-units="mm"
     showgrid="false" /><defs
     id="defs2" /><g
     inkscape:label="Layer 1"
     inkscape:groupmode="layer"
     id="layer1"
     transform="translate(-237.54171,106.98932)"><path
       d="m 496.13569,210.19221 c -7.84161,-3.19635 -14.42035,-8.95314 -18.90717,-14.1973 -22.38911,-19.62217 -47.70899,-34.5582 -68.1835,-50.10379 -1.51833,5.60962 -4.1867,11.31946 -6.52823,15.18717 -7.12251,6.48797 -25.22097,23.84534 -25.73907,23.82515 -0.67721,0.0879 -3.39975,-1.3053 -5.82285,-1.92158 -3.93363,5.53515 -5.85406,3.03924 -9.99152,1.7205 -3.82123,4.27969 -6.97213,4.00898 -9.81933,0.3694 -14.42672,2.27569 -24.37815,4.17639 -42.34155,6.99205 -4.41618,4.82918 -7.16974,3.69828 -12.51539,2.9226 -1.82268,-1.918 -3.64537,-3.836 -5.46805,-5.754 0.33384,-2.99033 -0.85339,-7.97345 0.8589,-10.0394 3.10068,-3.41555 6.73567,-4.96899 10.42998,-6.93243 -3.57689,-4.35967 -12.97998,-10.31754 -17.24442,-14.83399 -4.4975,0.27836 -9.97477,3.48337 -11.43262,3.68305 -4.92351,-0.17921 -13.04669,-3.31915 -13.71459,-4.11902 -1.24591,-3.1985 -1.04515,-4.72806 -1.16104,-8.85147 0.54094,-0.43724 14.77694,-6.26556 14.97426,-6.70359 -1.23141,-3.61771 -2.30256,-6.32562 -3.74622,-10.13564 -4.58936,0.29768 -25.96055,6.51193 -27.26599,6.68268 -1.95603,0.69932 -4.25119,-1.19699 -4.97559,-5.57327 3.56843,-2.53844 23.58261,-6.30363 29.20744,-9.61838 -8.17908,-19.86346 -9.3983,-38.8277 -6.6917,-58.523924 -5.86699,-1.405706 -15.35126,3.093668 -16.19347,3.121374 -0.23315,-0.198432 -0.96479,-5.892958 -0.39561,-6.644044 6.7649,-2.588456 13.52979,-5.176908 20.29469,-7.76536 0.26626,-7.948362 6.76508,-17.386261 9.46671,-21.85989 0.29281,-4.904949 -2.81941,-8.644682 -1.1866,-14.0569 1.28805,-3.019371 4.53608,-5.510792 7.56181,-5.53035 4.1985,-0.113694 5.71812,-0.961677 9.42691,0.30206 8.64086,-4.9126779 20.78701,-8.9256936 28.59566,-11.7205399 4.60597,0.22483375 6.2429,3.2109898 9.31526,4.7157 7.20568,-2.9890445 9.7919,-4.7999039 17.32198,-5.09528 6.79951,2.076368 16.36464,-6.2777515 20.46381,-3.33156 1.55209,1.1401781 1.24419,1.403016 2.70296,0.3245 3.15499,-0.6672016 5.44714,3.37951397 8.39006,6.56376 0.15474,1.6648019 0.30946,3.329606 0.46418,4.99441 4.40328,2.7469419 10.49318,10.7471099 14.87196,12.6988499 3.63717,-6.047364 14.44957,-11.4970641 15.01953,-18.9997099 -1.24527,-20.7412881 -3.84088,-44.7268251 -1.26603,-64.5486901 3.30621,-13.841167 8.80313,-23.627533 16.25907,-34.49598 5.82782,-3.307536 18.31921,-9.636406 26.95473,-9.928706 17.96093,4.34761 26.33971,16.198957 36.20147,29.092016 2.64507,2.935276 4.72352,8.279179 7.92852,8.29578 1.06715,0.004 3.02786,0.23718 4.35712,0.51882 3.50693,0.74302 131.58152,43.43547 134.17596,44.72627 3.05358,1.034644 3.61517,6.624262 4.49943,5.91786 1.91714,-3.263133 3.55901,-8.05297 6.98705,-9.51759 5.94551,-0.666453 8.2716,-0.373383 13.66932,-1.90798 0.0497,-0.868375 -0.10252,-1.917491 0.0819,-2.701152 6.59217,-2.023011 12.73301,-3.433816 19.42956,-5.312638 0.57595,0.467098 1.25665,1.400984 2.03076,1.42976 8.33691,-2.789505 25.16096,-8.30738 30.19665,-10.183147 0.51982,-0.01357 7.62364,3.059266 9.49695,6.090727 0.73766,0.28306 5.60924,0.27403 7.71289,-0.0143 2.2187,-1.371436 3.71766,-2.146829 6.04816,-3.60104 0,0 4.36021,0.0436 7.07168,-0.14311 4.03466,5.363303 4.31173,10.353249 8.61155,14.76911 3.22952,0.65377 6.45903,1.30756 9.68855,1.96135 3.17833,-1.39909 5.41005,-1.24264 5.41005,-1.24264 0,0 4.99301,17.61188 4.98652,17.93943 -0.004,0.19527 -2.28819,1.3724401 -5.07622,2.6159501 -6.39686,2.40809 -5.77925,4.87658 -8.98621,9.73352 0.96735,4.50011 2.9877,12.2389099 -0.026,14.4953699 -2.5473,1.43051 -4.80636,2.2685 -7.53657,3.3694 -0.62451,-0.46174 -1.24904,-0.92347 -1.87357,-1.38519 -7.60109,2.13473 -8.75297,10.74235 -12.59303,14.29618 -3.51273,1.476999 -4.94022,1.669072 -8.02457,0.80093 -7.1559,1.12339 -16.2635,3.5372 -23.3444,4.70779 -4.0679,4.17453 -13.71604,6.85689 -18.45363,6.9308 -3.27643,-0.09 -3.43724,0.0308 -5.3818,-1.83221 -4.86376,1.366157 -9.40636,4.652445 -14.35275,5.51797 -1.91618,-0.534182 -10.35626,-5.47014 -10.40815,-4.73004 1.6868,4.22491 1.66564,6.3668 -0.68037,9.33456 -1.36567,1.716 -41.93371,47.800884 -63.35151,71.966664 -2.75142,3.10445 -12.22658,13.83784 -21.0559,23.85199 l -16.05329,18.20753 c -2.99249,13.01299 -3.6392,31.09289 -12.47634,37.85992 -13.36418,3.42038 -28.76887,10.25217 -40.89925,5.32286 z m 20.7011,-34.21305 c 2.13074,-12.13307 3.58435,-25.57341 3.6043,-38.50563 -0.0369,-12.97236 -0.0457,-13.05278 -1.42494,-13.05278 -13.75655,4.421 -25.98725,4.64894 -37.69713,4.41825 8.14142,15.26903 14.27436,32.70063 25.368,46.16186 0.93042,1.03315 2.78536,2.33285 3.33283,2.33523 2.12401,-0.6283 4.8157,-0.23114 6.81694,-1.35693 z M 429.2843,102.44065 c -2.87687,-2.72747 -5.75373,-5.454937 -8.6306,-8.182404 -2.32957,-0.35727 -9.01537,-3.864221 -9.65754,-2.05499 1.38439,14.577384 1.87331,28.150964 1.70758,42.601924 1.06896,0.23971 42.91224,31.66208 44.56813,32.11719 -10.86349,-22.97274 -19.26754,-41.86107 -27.98757,-64.48172 z m 132.68127,25.16531 c 22.18246,-26.09136 45.77221,-50.786973 64.74565,-73.383614 -0.83907,-0.495063 -1.67814,-0.990121 -2.51721,-1.48518 -0.0724,-1.955861 0.12232,-3.98901 -0.0882,-5.91272 -1.86772,0.440473 -3.2874,0.785839 -5.28189,1.26653 -3.64021,-1.081611 -7.28042,-2.163241 -10.92063,-3.24487 -1.29259,-2.112146 -1.62429,-5.499866 -3.1774,-7.3934 -0.26641,-0.26444 -3.7314,0.77752 -4.43258,1.33291 -2.36507,9.412528 -8.48364,18.716445 -13.27788,23.80464 -6.84794,8.448813 -14.99701,13.20165 -23.86962,18.96799 -4.30215,7.527565 -8.41702,16.513932 -13.92809,22.696114 -2.60311,2.86795 -2.664,2.97684 -2.46644,4.40973 0.98908,7.17315 2.30106,23.07571 2.30106,27.89098 0,4.77625 0.0743,5.57543 0.4778,5.13919 4.87333,-5.50712 8.46461,-9.58172 12.43543,-14.0883 z M 597.8373,0.60634366 c 1.78902,-4.50718876 4.1433,-7.25890066 6.24838,-9.26300756 0.003,-2.0311401 0.005,-4.0622801 0.008,-6.0934201 0.5964,-0.507346 2.49277,-1.36122 2.39113,-2.23764 -0.072,-0.37399 -16.40071,-6.267 -53.45663,-19.29245 -29.34413,-10.3147 -53.43426,-18.67268 -53.53364,-18.5733 3.69626,8.989726 9.68748,21.783729 13.51886,31.689968 12.08546,0.766452 20.06719,13.8277185 30.04489,15.0226221 17.03771,3.1513437 32.00741,11.486388 43.0089,18.6684499 4.01089,-1.0531223 10.72187,-2.1887105 11.29424,-1.7129969 0.65767,-0.5921411 0.42295,-6.3420452 0.47587,-8.20822544 z M 477.72732,-25.339804 c 0.67807,-3.389616 -6.57167,-17.787439 -8.8473,-20.27834 -2.24439,0.550381 -3.91979,1.117965 -6.24457,1.84279 -6.26202,7.05677 -12.52402,14.11355 -18.78603,21.17033 0.1805,1.782942 0.58862,8.810463 1.25806,8.61905 10.53193,-4.557437 25.91098,-10.075608 32.61984,-11.35383 z m -19.95534,-33.25673 c 0.0785,-3.28396 -6.87886,-11.967229 -9.74302,-11.33491 -1.09808,0.636817 -6.57011,19.403448 -4.24807,26.78275 4.7154,-5.04713 8.48731,-13.101367 13.99109,-15.44784 z"
       id="path226"
       sodipodi:nodetypes="ccccccccccccccccccccccccccccccccccccccccccccscccccccccccccccccccccccccccccsscccccccccccccccccccccccccccccsccccccscccccccccccccccc"
       inkscape:export-filename="battle school svg v2 b.svg"
       inkscape:export-xdpi="96"
       inkscape:export-ydpi="96" /></g></svg>
