<svg viewBox="0 0 833 809" fill="none" xmlns="http://www.w3.org/2000/svg">
<path fill-rule="evenodd" clip-rule="evenodd" d="M295.726 0.722924C379.915 6.31392 458.224 36.7009 524 89.3039C540.296 102.336 570.254 131.98 582.846 147.532C613.938 185.933 637.819 228.913 653.413 274.537C657.254 285.775 667 321.817 667 324.786C667 325.294 664.341 325.709 661.09 325.709C655.207 325.709 655.159 325.733 650.614 330.959L646.049 336.209L646.013 332.709C645.978 329.253 644.9 328.39 560.526 264.209C513.528 228.459 475.054 198.759 475.029 198.209C474.909 195.537 464.511 174.698 459.672 167.429C452.902 157.26 442.862 147.484 435.825 144.207C430.677 141.811 429.786 141.729 409 141.729C388.24 141.729 387.317 141.814 382.199 144.196C379.284 145.553 374.169 149.262 370.832 152.436C359.855 162.882 352.308 175.213 343.575 196.977L338.07 210.696L303.896 247.452C285.101 267.669 269.157 284.821 268.465 285.569C267.433 286.686 266.346 285.26 262.383 277.588C253.089 259.592 241.022 246.296 228.332 240.07L222.5 237.209L195.105 236.899C167.923 236.592 167.685 236.571 164.551 234.18C157.54 228.833 156.56 228.709 121.238 228.709H88.412L82.999 231.959C72.811 238.077 69.092 250.627 74.375 261.061L76.75 265.753L70.384 278.323C64.366 290.207 55.757 314.125 54.365 322.826L53.744 326.709H32.461C13.126 326.709 10.666 326.905 5.589 328.848C2.515 330.024 0 331.374 0 331.848C0 332.321 11.756 332.709 26.125 332.709H52.25L51.625 335.834C51.281 337.553 51 339.578 51 340.334C51 341.412 48.769 341.709 40.678 341.709C31.05 341.709 29.973 341.916 24.678 344.784C21.555 346.475 19 348.275 19 348.784C19 349.31 25.479 349.709 34 349.709C47.055 349.709 49 349.916 49 351.302C49 352.178 48.484 358.329 47.853 364.971C46.838 375.668 46.352 377.618 43.603 382.04C40.884 386.414 40.5 387.921 40.5 394.209C40.5 400.602 40.864 401.97 43.831 406.744C46.626 411.241 47.311 413.559 48.089 421.156C48.599 426.135 49.296 432.346 49.637 434.959C50.252 439.668 50.233 439.709 47.379 439.716C40.944 439.73 35.013 446.441 35.013 453.709C35.013 462.158 40.116 466.946 49.933 467.709C56.021 468.182 56.407 468.364 57.137 471.11C57.72 473.303 57.431 474.617 55.954 476.495C53.263 479.915 53.418 485.218 56.292 488.092C58.118 489.918 58.504 491.219 58.192 494.492C57.876 497.807 58.262 499.062 60.192 500.992C62.122 502.922 62.508 504.177 62.192 507.492C61.627 513.416 65.048 516.709 71.766 516.709C76.004 516.709 76.907 517.092 78.842 519.709L81.06 522.709L66.28 522.716C53.486 522.721 51.116 522.975 48.641 524.607C39.699 530.502 39.699 542.916 48.641 548.811C51.39 550.623 55.054 550.696 143.5 550.696C231.946 550.696 235.61 550.623 238.359 548.811C242.804 545.88 244.986 541.815 244.993 536.45C244.999 532.156 245.614 530.885 251.278 523.45C254.73 518.917 259.749 510.955 262.43 505.756L267.304 496.303L271.95 501.356C274.505 504.135 290.524 521.357 307.548 539.627L338.5 572.845L342.079 582.027C353.693 611.828 367.719 631.48 382.175 638.211C387.323 640.607 388.219 640.69 409.09 640.699L430.681 640.709L436.783 637.66C448.855 631.627 463.046 613.149 471.69 592.209L475.405 583.209L560.129 518.709C643.021 455.604 644.868 454.124 645.546 450.27L646.24 446.332L650.71 451.52L655.18 456.709H663.219H671.258L670.59 461.959C665.009 505.855 647.267 558.594 624.081 600.209C605.785 633.046 583.963 661.836 556.554 689.298C524.25 721.665 492.981 744.496 454.028 764.16C402.634 790.103 352.152 803.965 295.393 807.717C283.495 808.504 284.044 808.541 302.5 808.204C334.229 807.623 366.986 802.557 399.681 793.173C508.679 761.889 600.521 684.781 650.956 582.209C670.169 543.136 680.452 509.706 688.561 459.959L689.091 456.709L733.795 456.695L778.5 456.681L784.25 451.612C789.769 446.747 790 446.348 790 441.673C790 436.115 788.523 436.934 806.25 432.664L816 430.315V417.626V404.936L820.75 404.285C831.158 402.857 830.776 403.104 832.048 396.978C833.306 390.918 832.046 380.974 829.849 379.615C829.222 379.228 825.849 378.605 822.354 378.23L816 377.55V364.826V352.103L806.25 349.754C788.32 345.435 790 346.462 790 339.819C790 334.103 789.931 333.964 785.071 329.866L780.141 325.709H732.539C695.318 325.709 684.858 325.436 684.574 324.459C684.374 323.772 682.557 316.234 680.536 307.709C652.544 189.645 567.21 86.6849 455.11 35.7219C406.283 13.5239 353.071 1.14192 302.5 0.211923C283.481 -0.137077 283.149 -0.112076 295.726 0.722924ZM423.468 197.959C426.491 204.147 430.72 214.609 432.865 221.209C437.137 234.349 443.613 260.429 442.806 261.237C442.527 261.515 437.627 261.004 431.918 260.099C415.733 257.536 389.207 259.017 375.95 263.225C374.274 263.757 374.282 263.324 376.102 254.998C381.575 229.952 387.964 210.553 395.711 195.459L400.202 186.709H409.087H417.971L423.468 197.959ZM560.499 277.209L631.346 331.209L611.104 331.48L590.861 331.751L581.931 337.756L573 343.761V360.785V377.809L567.451 377.509L561.901 377.209L559.58 370.553C555.988 360.253 550.496 352.115 539.696 341.086C534.243 335.518 528.52 328.654 526.977 325.833C522.24 317.171 514.969 307.626 505.933 298.209L497.298 289.209L496.082 281.209C493.246 262.56 485.336 226.961 482.228 218.861C481.461 216.861 475.208 212.2 560.499 277.209ZM330.917 235.959C329.205 241.859 323.072 273.01 321.427 284.162L319.811 295.116L313.373 302.069C309.832 305.894 304.672 312.406 301.907 316.54C298.117 322.207 294.95 325.47 289.038 329.801L281.196 335.545L279.95 328.877C278.909 323.303 277.442 317.841 271.89 298.875C271.676 298.142 285 282.968 301.5 265.156C318 247.344 331.581 232.757 331.68 232.74C331.779 232.723 331.436 234.172 330.917 235.959ZM573 422.179V439.648L580.75 444.929L588.5 450.209L609.959 450.709L631.417 451.209L556.992 507.909C516.058 539.094 482.447 564.489 482.301 564.344C482.155 564.198 483.387 559.383 485.039 553.644C488.091 543.037 495.264 508.722 496.521 498.709C497.173 493.518 497.672 492.731 505.398 484.709C515.489 474.231 518.91 469.852 525.168 459.397C528.254 454.242 533.695 447.505 539.859 441.209C551.391 429.43 557.348 419.822 561.406 406.459C561.828 405.067 563.07 404.709 567.469 404.709H573V422.179ZM291.643 454.336C294.224 456.148 298.431 460.871 301.64 465.562C304.688 470.016 310 476.709 313.446 480.435L319.711 487.209L322.392 503.794C323.866 512.916 326.553 527.007 328.362 535.108L331.651 549.836L326.887 545.023C324.266 542.375 310.692 527.885 296.723 512.822L271.323 485.434L274.658 474.925C276.493 469.145 278.752 460.459 279.679 455.624L281.364 446.832L284.276 449.021C285.877 450.224 289.192 452.616 291.643 454.336ZM384.61 521.301C395.563 523.76 419.558 524.276 431.918 522.319C437.627 521.414 442.527 520.903 442.806 521.181C443.622 521.997 437.113 548.123 432.75 561.547C430.545 568.333 426.211 578.908 423.12 585.047L417.5 596.209H409.074H400.649L396.83 589.209C389.154 575.141 381.52 552.441 376.181 527.813C374.307 519.165 374.294 518.667 375.956 519.195C376.926 519.503 380.82 520.451 384.61 521.301Z"/>
</svg>
