<?xml version="1.0" encoding="UTF-8" standalone="no"?>
<!-- Created with Inkscape (http://www.inkscape.org/) -->

<svg
   width="171.17188mm"
   height="89.578735mm"
   viewBox="0 0 171.17188 89.578735"
   version="1.1"
   id="svg5"
   xml:space="preserve"
   sodipodi:docname="battle school svg.svg"
   xmlns:inkscape="http://www.inkscape.org/namespaces/inkscape"
   xmlns:sodipodi="http://sodipodi.sourceforge.net/DTD/sodipodi-0.dtd"
   xmlns="http://www.w3.org/2000/svg"
   xmlns:svg="http://www.w3.org/2000/svg"><sodipodi:namedview
     id="namedview7"
     pagecolor="#ffffff"
     bordercolor="#000000"
     borderopacity="0.25"
     inkscape:showpageshadow="2"
     inkscape:pageopacity="0.0"
     inkscape:pagecheckerboard="0"
     inkscape:deskcolor="#d1d1d1"
     inkscape:document-units="mm"
     showgrid="false" /><defs
     id="defs2" /><g
     inkscape:label="Layer 1"
     inkscape:groupmode="layer"
     id="layer1"
     transform="translate(-11.244348,-212.26693)"><path
       d="m 106.12291,207.8665 c -1.71091,-0.56752 -2.85798,-2.16671 -5.7681,-6.34307 -2.323908,-3.19421 -3.813457,-6.08321 -5.610609,-9.44606 -0.527725,-0.98832 -0.527725,-0.98832 -1.374392,-1.30544 -0.465666,-0.17442 -1.441843,-0.61327 -2.16928,-0.97523 -1.322613,-0.65811 -1.322613,-0.65811 -1.510459,0.28944 -1.603072,8.08635 -8.222814,13.02316 -16.023977,11.95019 -0.394967,-0.0543 -0.405536,-0.0495 -0.889,0.40844 -4.393512,4.16121 -12.435098,4.55697 -18.852535,0.92781 -0.752588,-0.4256 -0.752588,-0.4256 -1.300349,-0.17984 -1.06367,0.28572 -1.569613,-0.70911 -2.487502,-1.0814 -1.654227,-0.66425 -4.050583,-3.82746 -3.464261,-4.57284 0.180045,-0.2289 0.236577,-0.1427 -1.308633,-1.99537 -0.254,-0.30454 -0.254,-0.30454 -3.048,0.81805 -5.787821,2.32546 -9.45554,3.77413 -9.552115,3.77287 -0.127171,-0.002 -1.015118,-1.66582 -0.920147,-1.72452 0.03894,-0.0241 1.477675,-0.6307 3.197195,-1.34808 6.097379,-2.5438 8.8414,-3.72305 8.8414,-3.79961 -0.366595,-2.60031 -1.85643,-0.79191 -2.003729,-1.61395 -0.210859,-0.86573 -0.995885,-1.0192 -1.04427,-0.99525 -0.574737,0.29321 -0.553227,0.31825 -1.225564,-1.42677 -0.155165,-0.40273 -0.308916,-0.79891 -0.341669,-0.8804 0.684329,-0.24954 1.080729,-0.31794 1.375897,-1.05631 0.12592,-0.19218 -0.225109,-0.15708 -0.787001,0.0193 -0.777666,0.30778 -2.172139,-2.23068 -2.475218,-3.00023 0.993654,-0.94678 1.045335,-0.90328 0.710508,-1.83173 -0.247931,-0.69062 -0.424453,-1.39283 -0.557968,-2.21961 -0.107415,-0.66516 -0.2194,-1.19856 -0.248854,-1.18533 -1.114015,0.21917 -1.947725,1.37819 -3.078672,1.34572 -0.04459,-0.0446 -0.273881,0.005 -0.557099,0.11981 -4.566333,1.85546 -11.43287,4.4241 -11.686653,4.37175 -0.256256,-0.0529 0.398575,-0.32954 5.947713,-2.51298 3.42962,-1.34947 6.235726,-2.48215 6.235793,-2.51707 2.54e-4,-0.1496 -0.139983,-0.0993 -5.410308,1.94136 -0.886311,0.34318 -1.23671,0.38709 -1.081227,0.13552 0.02573,-0.0416 1.592134,-0.66245 3.480889,-1.37958 3.752397,-1.42472 3.628732,-1.35285 3.268474,-1.89937 -0.708252,0.0542 -0.321437,0.68152 -1.052888,-0.63539 -0.639314,-1.15635 -0.61237,-1.0483 -0.387931,-1.55568 0.147916,-0.33439 0.489362,-2.47874 0.406376,-2.55213 -0.01518,-0.0134 -0.503848,0.15733 -1.085931,0.37946 -0.582083,0.22212 -1.082038,0.37944 -1.11101,0.34958 -1.016599,-1.04749 -0.803145,-2.74382 -0.06203,-2.95574 0.27933,-0.0799 2.167504,-0.84873 2.229009,-1.50508 0.03383,-0.361 0.152973,-1.03411 0.264766,-1.4958 0.282276,-0.95273 0.226193,-0.72256 -0.558739,-0.88086 0,-0.17545 0.246619,-0.25383 -3.457687,1.099 -3.386169,1.23664 -3.341896,1.22297 -3.300687,1.01912 0.01842,-0.0911 0.581511,-0.34051 1.720708,-0.76215 5.49029,-2.03203 4.91401,-1.7647 4.882562,-2.26499 0.367298,-1.0572 1.027081,-0.5174 1.171359,-1.58117 0.123971,-0.9061 0.927182,-2.87789 1.438042,-3.53022 0.140072,-0.17886 1.057829,-0.62182 3.839056,-1.85293 3.654979,-1.61788 3.654979,-1.61788 4.094454,-2.20133 1.322381,-1.10986 2.357474,-1.8602 3.690809,-2.82425 0.2826,-0.20209 0.388965,-0.3294 0.352043,-0.42139 -0.240215,-0.59849 -0.799327,-2.13 -0.799327,-2.1895 0.228798,-0.18571 0.459875,-0.35969 0.567987,-0.56698 -0.07154,-0.34155 -3.296496,-8.29813 -3.451781,-8.5162 -0.219109,-0.30771 0.3753,-0.57331 1.005159,-0.44913 0.382089,0.0753 0.382089,0.0753 1.903552,4.13933 1.781957,4.75981 1.473648,4.15162 2.022262,3.98925 0.477945,-0.14145 0.46516,-0.14577 0.704488,0.23828 0.07568,0.12145 0.203719,0.0998 1.206875,-0.20434 2.170234,-0.6579 2.60226,-0.48741 3.283025,1.29564 0.381092,1.03105 0.900772,0.572 1.1413,0.0981 0.426506,-0.84028 0.845946,-1.26622 1.640382,-1.66578 3.304252,-1.65356 7.461287,-3.20403 10.828572,-2.73158 3.332117,0.57585 4.901038,1.27799 7.986255,3.57411 1.010199,0.75182 1.056072,0.77593 1.127616,0.59267 0.04102,-0.10507 0.293091,-0.70539 0.560162,-1.33404 1.196006,-2.81524 1.128435,-2.09969 0.58765,-6.223 -0.320246,-5.69878 -0.992012,-11.6778 1.737722,-16.84867 0.12879,-0.23283 0.543237,-0.98649 0.920992,-1.67479 0.508937,-0.92732 0.894632,-1.49748 1.48915,-2.20133 3.931036,-2.87996 11.76392,-4.94518 14.29663,-3.99941 0.473549,0.2016 1.184848,0.49052 1.580665,0.64205 1.32566,0.50752 3.803905,2.30991 6.084005,4.42482 2.20817,1.17524 4.66776,2.16585 6.71283,2.67491 9.80844,2.40769 19.84748,3.08088 28.7745,5.50944 1.47516,0.28592 4.0251,2.21203 3.93246,1.3969 -0.0488,-0.32513 -0.0121,-0.48676 0.2469,-1.08972 0.30414,-0.70797 0.30414,-0.70797 0.0584,-3.19542 -0.47847,-4.84318 -0.5345,-5.48281 -0.49036,-5.59782 0.0429,-0.11181 1.14136,-0.62797 1.19678,-0.56235 1.14422,1.2707 0.53247,3.02046 -0.004,3.33807 -0.0598,0.15594 1.51381,5.88032 1.61651,5.88032 1.21872,-0.78652 1.976,-0.9205 2.97212,-1.22214 1.97467,-0.59677 8.92921,-2.91024 18.32696,-6.09657 4.31586,-1.46331 4.78995,-1.55877 5.28979,-1.06515 1.66791,0.57868 2.87761,-0.98376 5.38611,-1.22944 1.53228,0.37112 2.97553,2.28114 3.72004,3.221 1.0755,1.35904 1.46536,1.7003 1.79797,1.57384 1.71529,-0.65215 2.08246,-0.67918 2.28072,-0.16788 0.23882,0.6159 -0.0641,0.65922 2.75377,-0.39371 3.27218,-1.22269 3.2808,-1.22246 4.09425,0.10592 0.31956,0.52186 0.55342,0.96583 0.51969,0.9866 -1.91722,0.87687 -3.94346,1.44757 -5.92966,2.12908 -0.0145,0.0131 0.21013,0.49464 0.49911,1.07002 0.66769,1.32941 1.38919,5.89721 0.95618,6.05354 -2.07252,0.74828 -2.28269,1.08693 -1.99213,3.20998 0.24292,1.77502 0.15555,2.8328 -0.27375,3.31395 -3.24339,0.72268 -5.04776,3.07097 -6.04794,4.37814 -3.22943,0.30993 -1.2454,0.95009 -2.85182,1.52618 -1.10066,0.39571 -1.10066,0.39571 -1.3687,0.0781 -0.26805,-0.31759 -0.26805,-0.31759 -6.94267,2.34068 -9.70406,3.86478 -8.62196,3.35799 -8.62196,4.03804 0,0.54244 -0.69552,1.01187 -1.6604,1.12066 -0.0284,0.003 -0.14269,-0.16561 -0.25385,-0.37516 -0.50487,-0.91319 -1.63448,0.60149 -1.95441,-0.1292 -0.14333,-0.33002 -0.14333,-0.33002 -1.05834,0.0579 -2.10646,0.89302 -1.87801,0.85867 -2.33293,0.35075 -0.66696,-0.76254 -0.62897,-1.7333 -1.30789,-0.93558 -0.51095,0.6005 -0.48161,0.55339 -1.58755,2.54885 -1.17565,2.12125 -1.39331,2.47768 -3.91096,6.40465 -1.16434,1.8161 -3.81325,5.94995 -5.88648,9.18633 -7.04292,10.99427 -9.48635,14.77143 -10.61753,16.413 -1.11164,1.61323 -1.1353,1.65726 -1.52394,2.83633 -4.05366,9.36799 -9.5984,12.63269 -15.84822,13.9407 -0.0699,0.017 -2.22543,0.74832 -2.53323,0.64622 z m 10.2339,-18.51141 c 0.28653,-1.67166 0.21896,-3.04157 0.39428,-4.69837 -0.43959,-2.11943 -5.28452,-2.04266 -5.41048,-0.30894 -0.39061,2.62256 2.92094,3.32954 5.0162,5.00731 z m 19.95251,-17.73555 c 7.37951,-9.84991 7.37951,-9.84991 7.21657,-10.41555 -0.0896,-0.3111 -0.20269,-0.7113 -0.25128,-0.88934 -1.15387,-1.19675 -4.04897,0.75896 -4.70308,-1.42011 -0.30778,-1.08657 -1.0277,-2.62044 -1.04924,-2.23552 -0.15704,2.80724 -0.95778,5.06178 -2.52592,7.112 -2.6118,3.4147 -4.16288,5.00398 -5.91685,6.0626 -1.94502,1.17393 -2.58059,2.09144 -2.29802,3.31746 0.47233,2.04942 0.6146,2.796 0.83437,4.37828 0.13259,0.95461 0.28513,2.36431 0.33897,3.13266 0.13776,1.96603 0.0969,1.87409 0.57466,1.29372 0.22017,-0.26746 3.72109,-4.91875 7.77982,-10.3362 z m -2.64992,-25.1264 c -1.44378,-2.77249 -1.52129,-6.57065 1.48133,-8.03119 1.30395,-0.58896 1.57395,-0.88561 1.17195,-1.2876 -0.0889,-0.0889 -25.37142,-4.21766 -25.42793,-4.15247 0.67288,1.69435 3.38046,4.25407 3.43731,5.87729 0.4784,2.85033 3.91603,3.59576 6.33193,3.9575 1.96024,0.28248 3.06655,0.52594 6.92633,1.52426 0.52589,0.13602 3.93036,1.83346 4.39749,2.19254 0.18626,0.14319 0.59873,0.48194 0.9166,0.75278 1.24658,0.8039 1.21289,-0.0883 0.76499,-0.83311 z m -33.876091,-5.8338 c 0.119814,-0.72226 -3.653381,-6.29059 -5.096281,-6.99522 -0.2755,0.44577 -0.363837,6.13762 -0.121284,7.81479 0.241361,0.56224 0.826482,0.18772 1.157693,0.59473 1.118913,0.41794 2.691772,-1.01547 4.059872,-1.4143 z"
       id="path243"
       class="UnoptimicedTransforms"
       sodipodi:nodetypes="sccsssccsccsssccscccscccccsccccscscsccscscssccsscccssccsccsccsscccccsssccsccccccccssccccscccssssccscscccssscccsccssssccssccccsscccsssssssccscccssccccccc"
       transform="translate(-10.671284,92.671675)"
       inkscape:export-filename="path243.svg"
       inkscape:export-xdpi="96"
       inkscape:export-ydpi="96" /></g></svg>
